<?xml version="1.0" standalone="no"?><svg xmlns="http://www.w3.org/2000/svg" viewBox="0 0 1440 320"><path fill="#F6F8D5" fill-opacity="1" d="M0,224L21.8,202.7C43.6,181,87,139,131,112C174.5,85,218,75,262,112C305.5,149,349,235,393,250.7C436.4,267,480,213,524,202.7C567.3,192,611,224,655,240C698.2,256,742,256,785,213.3C829.1,171,873,85,916,58.7C960,32,1004,64,1047,106.7C1090.9,149,1135,203,1178,186.7C1221.8,171,1265,85,1309,64C1352.7,43,1396,85,1418,106.7L1440,128L1440,0L1418.2,0C1396.4,0,1353,0,1309,0C1265.5,0,1222,0,1178,0C1134.5,0,1091,0,1047,0C1003.6,0,960,0,916,0C872.7,0,829,0,785,0C741.8,0,698,0,655,0C610.9,0,567,0,524,0C480,0,436,0,393,0C349.1,0,305,0,262,0C218.2,0,175,0,131,0C87.3,0,44,0,22,0L0,0Z"></path></svg>